<svg width="45" height="45" viewBox="0 0 45 45" fill="none" xmlns="http://www.w3.org/2000/svg">
<path fill-rule="evenodd" clip-rule="evenodd" d="M39.375 2.8125H5.625C4.87908 2.8125 4.16371 3.10882 3.63626 3.63626C3.10882 4.16371 2.8125 4.87908 2.8125 5.625V39.375C2.8125 40.1209 3.10882 40.8363 3.63626 41.3637C4.16371 41.8912 4.87908 42.1875 5.625 42.1875H39.375C40.1209 42.1875 40.8363 41.8912 41.3637 41.3637C41.8912 40.8363 42.1875 40.1209 42.1875 39.375V5.625C42.1875 4.87908 41.8912 4.16371 41.3637 3.63626C40.8363 3.10882 40.1209 2.8125 39.375 2.8125ZM5.625 0C4.13316 0 2.70242 0.592632 1.64752 1.64752C0.592632 2.70242 0 4.13316 0 5.625L0 39.375C0 40.8668 0.592632 42.2976 1.64752 43.3525C2.70242 44.4074 4.13316 45 5.625 45H39.375C40.8668 45 42.2976 44.4074 43.3525 43.3525C44.4074 42.2976 45 40.8668 45 39.375V5.625C45 4.13316 44.4074 2.70242 43.3525 1.64752C42.2976 0.592632 40.8668 0 39.375 0L5.625 0Z" fill="#22647A"/>
<path fill-rule="evenodd" clip-rule="evenodd" d="M21.5044 31.9334C21.3735 31.8028 21.2696 31.6476 21.1987 31.4768C21.1278 31.3059 21.0913 31.1228 21.0913 30.9378C21.0913 30.7528 21.1278 30.5697 21.1987 30.3988C21.2696 30.228 21.3735 30.0728 21.5044 29.9422L28.9491 22.5003L21.5044 15.0584C21.3737 14.9277 21.27 14.7725 21.1992 14.6016C21.1285 14.4308 21.092 14.2477 21.092 14.0628C21.092 13.8779 21.1285 13.6948 21.1992 13.524C21.27 13.3532 21.3737 13.1979 21.5044 13.0672C21.6352 12.9364 21.7904 12.8327 21.9612 12.762C22.1321 12.6912 22.3152 12.6548 22.5001 12.6548C22.685 12.6548 22.8681 12.6912 23.0389 12.762C23.2097 12.8327 23.3649 12.9364 23.4957 13.0672L31.9332 21.5047C32.0642 21.6353 32.1681 21.7905 32.2389 21.9613C32.3098 22.1322 32.3463 22.3153 32.3463 22.5003C32.3463 22.6853 32.3098 22.8684 32.2389 23.0393C32.1681 23.2101 32.0642 23.3653 31.9332 23.4959L23.4957 31.9334C23.3651 32.0644 23.2099 32.1683 23.039 32.2392C22.8682 32.3101 22.685 32.3466 22.5001 32.3466C22.3151 32.3466 22.1319 32.3101 21.9611 32.2392C21.7903 32.1683 21.6351 32.0644 21.5044 31.9334Z" fill="#22647A"/>
<path fill-rule="evenodd" clip-rule="evenodd" d="M12.6562 22.5C12.6562 22.127 12.8044 21.7694 13.0681 21.5056C13.3319 21.2419 13.6895 21.0938 14.0625 21.0938H28.125C28.498 21.0938 28.8556 21.2419 29.1194 21.5056C29.3831 21.7694 29.5312 22.127 29.5312 22.5C29.5312 22.873 29.3831 23.2306 29.1194 23.4944C28.8556 23.7581 28.498 23.9062 28.125 23.9062H14.0625C13.6895 23.9062 13.3319 23.7581 13.0681 23.4944C12.8044 23.2306 12.6562 22.873 12.6562 22.5Z" fill="#22647A"/>
</svg>
