<?xml version="1.0" encoding="utf-8"?>
<!-- Generator: Adobe Illustrator 24.1.2, SVG Export Plug-In . SVG Version: 6.00 Build 0)  -->
<svg version="1.1" id="Layer_1" xmlns="http://www.w3.org/2000/svg" xmlns:xlink="http://www.w3.org/1999/xlink" x="0px" y="0px"
	 viewBox="0 0 1730 340" style="enable-background:new 0 0 1730 340;" xml:space="preserve">
<style type="text/css">
	.st0{fill:#FFFFFF;}
</style>
<g>
	<g>
		<g>
			<g>
				<path class="st0" d="M600.2,313.3v-96.2c0-23.7-12.4-45.2-36.8-45.2c-24.1,0-38.3,21.5-38.3,45.2v96.2h-44.5v-180h41.2l3.3,21.9
					c9.5-18.2,30.2-24.8,47.4-24.8c21.5,0,43,8.7,53.2,33.5c16-25.5,36.8-32.8,60.1-32.8c51,0,76.2,31.3,76.2,85.3v96.9h-44.5v-96.9
					c0-23.7-9.8-43.7-33.9-43.7s-39,20.8-39,44.5v96.2h-44.4V313.3z"/>
			</g>
		</g>
		<g>
			<g>
				<path class="st0" d="M830.4,239.4c2.9,22.2,22.2,38.3,53.6,38.3c16.4,0,37.9-6.2,48.1-16.8l28.4,28.1
					c-18.9,19.7-49.9,29.2-77.2,29.2c-61.9,0-98.7-38.3-98.7-95.8c0-54.7,37.2-94,95.5-94c60.1,0,97.7,37.2,90.7,111.1H830.4V239.4z
					 M928.1,202.6c-2.9-23.3-21.1-35-46.6-35c-24,0-43.7,11.7-50.3,35H928.1z"/>
			</g>
		</g>
		<g>
			<g>
				<path class="st0" d="M1068.7,83v50h49.6v38.3h-49.9V250c0,17.1,9.5,25.5,23.3,25.5c6.9,0,14.9-2.2,21.5-5.5l12.4,37.9
					c-12.8,5.1-23.3,7.3-36.8,7.7c-39,1.5-64.5-20.8-64.5-65.6v-78.7h-33.5V133h33.5V87.8L1068.7,83z"/>
			</g>
		</g>
		<g>
			<path class="st0" d="M1244.9,133v40.1h-4.1c-23.3,0-44.8,12.4-44.8,45.5v94.7h-44.5V133.7h41.2l3.3,20.8
				C1209.3,132.9,1227.2,133.2,1244.9,133z"/>
		</g>
		<g>
			<g>
				<path class="st0" d="M1276.6,133v180.4h44.5V133H1276.6z"/>
			</g>
		</g>
		<g>
			<g>
				<path class="st0" d="M1515.2,290.4c-20.8,20.4-42.6,28.4-69.2,28.4c-52.1,0-95.5-31.3-95.5-95.1s43.4-95.1,95.5-95.1
					c25.5,0,45.2,7.3,64.9,26.6l-28.1,29.5c-10.6-9.5-23.7-14.2-36.1-14.2c-29.9,0-51.7,21.9-51.7,53.2c0,34.2,23.3,52.5,51,52.5
					c14.2,0,28.4-4,39.4-14.9L1515.2,290.4z"/>
			</g>
		</g>
		<g>
			<g>
				<path class="st0" d="M1677.4,133.7h42.6v179.6h-41.9l-2.2-26.2c-10.2,21.1-38.3,31.3-58.3,31.7c-53.2,0.4-92.5-32.4-92.5-95.5
					c0-61.9,41.2-94.4,93.6-94c24,0,47,11.3,57.2,29.1L1677.4,133.7z M1569.5,223.3c0,34.2,23.7,54.7,53.2,54.7
					c70,0,70-108.9,0-108.9C1593.2,169,1569.5,189.1,1569.5,223.3z"/>
			</g>
		</g>
		<g>
			<path class="st0" d="M917.9,57h-3.6c-9.3,8.4-22,12.7-36.3,12.8v39.4c0.3,0,0.6,0,0.9,0c27.7,0,50.6-8.9,67.1-24.2L917.9,57z"/>
		</g>
		<g>
			<g>
				<g>
					<rect x="10.5" y="133.3" class="st0" width="59" height="180"/>
				</g>
				<g>
					<path class="st0" d="M171,197.2c-10.2-0.6-22.4-2.8-22.4-9.5c0-5.8,11-7.8,21.2-7.8c14.8,0,25.3,3.7,34.2,12.1l6.3,5.9
						l33.1-38.9l-6.1-5.3c-18.9-16.5-38.6-23.3-68.2-23.3c-37.9,0-76.2,18.1-76.2,58.6c0,33.9,26.4,54.6,74.4,58.2
						c24.3,1.4,24.3,6.2,24.3,8.8c0,6-9.2,11.1-19.9,11.1h-0.8c-15.3-0.3-39.7-8.8-49.6-19.8l-7-7.8L85,282l4.6,4.8
						c26.5,27.6,55.5,31.3,80.5,31.3c53.5,0,77.5-30.7,77.5-61.2C247.7,202.2,192,198.6,171,197.2z"/>
				</g>
				<g>
					<g>
						<path class="st0" d="M358,130.4c-54,0-93.2,39.5-93.2,93.9c0,55.3,38.5,93.9,93.6,93.9c55.3,0,93.9-38.6,93.9-93.9
							C452.2,169.9,412.6,130.4,358,130.4z M394.6,224.3c0,19.9-11.2,39.9-36.2,39.9s-36.2-20-36.2-39.9c0-19.4,11.3-40.2,36.2-40.2
							C381,184.1,394.6,204.5,394.6,224.3z"/>
					</g>
				</g>
			</g>
		</g>
		<g>
			<g>
				<path class="st0" d="M56.8,37c-4-3.8-9.9-5.9-15-5.9c-12.7,0-20.4,9.6-20.4,21.8c0,9.7,5.7,19.8,20.4,19.8c4.6,0,8.7-1,13.3-4.7
					V57.5H39.9v-10h25.3v24.9C59.5,79.1,52.1,83,41.7,83c-22.2,0-31.3-14.6-31.3-30.2c0-16.6,10.4-32,31.3-32c7.9,0,15.9,3,22,9
					L56.8,37z"/>
				<path class="st0" d="M162.4,81.7h-12.8l-17.1-19.8h-11.3v19.8H110V22.5c9.4,0,18.8,0.1,28.1,0.1c13.9,0.1,21.3,9.4,21.3,19.6
					c0,8.1-3.7,16.3-15,18.6L162.3,81L162.4,81.7L162.4,81.7z M121.2,33v18.9h17c7.1,0,10.1-4.7,10.1-9.5c0-4.7-3.1-9.5-10.1-9.5
					L121.2,33L121.2,33z"/>
				<path class="st0" d="M256,22.7v33.9C256,74,245.3,83,230.4,83c-14.2,0-26.3-8.6-26.3-26.4V22.7h11.1v33.9
					c0,10.6,6.1,16.3,15.3,16.3s14.4-6.2,14.4-16.3V22.7H256z"/>
				<path class="st0" d="M313.8,64.3v17.4h-11.2V22.6c9.2,0,18.7-0.1,27.9-0.1c29.1,0,29.1,41.6,0,41.8H313.8z M313.8,54.1h16.7
					c14.3,0,14.2-20.9,0-20.9h-16.7V54.1z"/>
				<path class="st0" d="M452.1,52.5c-0.2,15.3-9.5,30.6-30.3,30.6s-30.4-15-30.4-30.5c0-18.7,13.5-31.2,30.7-31.2
					C442.2,21.6,452.2,37.1,452.1,52.5z M421.7,72.8c13.9,0,19.2-10.5,19.3-20.2c0.2-9.9-5.5-20.9-19.1-21.1
					c-12.6,0-20,9.5-19.7,21.2C402.6,62.4,407.8,72.8,421.7,72.8z"/>
			</g>
		</g>
	</g>
</g>
</svg>
