<svg width="23" height="46" viewBox="0 0 23 46" fill="none" xmlns="http://www.w3.org/2000/svg">
<path d="M17.58 0C20.93 0 22.605 2.0976 22.605 4.5011C22.605 7.5026 19.695 10.2787 15.9075 10.2787C12.735 10.2787 10.885 8.5537 10.9725 5.7017C10.9725 3.3028 13.175 0 17.58 0ZM7.2725 46C4.6275 46 2.69 44.5004 4.54 37.8948L7.575 26.1832C8.1025 24.311 8.19 23.5589 7.575 23.5589C6.7825 23.5589 3.3525 24.8515 1.32 26.128L0 24.104C6.43 19.0762 13.8275 16.1299 17.0025 16.1299C19.645 16.1299 20.085 19.0578 18.765 23.5589L15.2875 35.8685C14.6725 38.042 14.935 38.7918 15.5525 38.7918C16.345 38.7918 18.945 37.8902 21.5 36.0157L23 37.8879C16.745 43.746 9.9125 46 7.2725 46Z" fill="white"/>
</svg>
